<?xml version="1.0" encoding="UTF-8"?>
<svg xmlns="http://www.w3.org/2000/svg" width="1200" height="630" viewBox="0 0 1200 630">
  <defs>
    <!-- Neon glow filter -->
    <filter id="neonGlow" x="-50%" y="-50%" width="200%" height="200%">
      <feGaussianBlur in="SourceGraphic" stdDeviation="8" result="blur"/>
      <feColorMatrix in="blur" type="matrix"
        values="1 0 0 0 0  0 1 0 0 0  0 0 1 0 0  0 0 0 18 -7" result="glow"/>
      <feMerge>
        <feMergeNode in="glow"/>
        <feMergeNode in="SourceGraphic"/>
      </feMerge>
    </filter>
    <!-- Background gradient -->
    <radialGradient id="bgGrad" cx="50%" cy="50%" r="70%">
      <stop offset="0%" stop-color="#12122a"/>
      <stop offset="100%" stop-color="#0a0a12"/>
    </radialGradient>
    <!-- Accent glow -->
    <radialGradient id="accentGlow" cx="50%" cy="45%" r="50%">
      <stop offset="0%" stop-color="#39FF1444"/>
      <stop offset="100%" stop-color="transparent"/>
    </radialGradient>
  </defs>

  <!-- Background -->
  <rect width="1200" height="630" fill="url(#bgGrad)"/>

  <!-- Accent glow backdrop -->
  <rect width="1200" height="630" fill="url(#accentGlow)"/>

  <!-- Grid lines (decorative) -->
  <g stroke="#1a1a3a" stroke-width="0.5" opacity="0.5">
    <line x1="0" y1="105" x2="1200" y2="105"/>
    <line x1="0" y1="210" x2="1200" y2="210"/>
    <line x1="0" y1="315" x2="1200" y2="315"/>
    <line x1="0" y1="420" x2="1200" y2="420"/>
    <line x1="0" y1="525" x2="1200" y2="525"/>
    <line x1="200" y1="0" x2="200" y2="630"/>
    <line x1="400" y1="0" x2="400" y2="630"/>
    <line x1="600" y1="0" x2="600" y2="630"/>
    <line x1="800" y1="0" x2="800" y2="630"/>
    <line x1="1000" y1="0" x2="1000" y2="630"/>
  </g>

  <!-- Neon border -->
  <rect x="24" y="24" width="1152" height="582" rx="16" ry="16"
        fill="none" stroke="#39FF14" stroke-width="2" opacity="0.6"/>
  <rect x="28" y="28" width="1144" height="574" rx="14" ry="14"
        fill="none" stroke="#39FF1488" stroke-width="1" opacity="0.3"/>

  <!-- Corner accents -->
  <circle cx="24" cy="24" r="4" fill="#39FF14" opacity="0.8"/>
  <circle cx="1176" cy="24" r="4" fill="#39FF14" opacity="0.8"/>
  <circle cx="24" cy="606" r="4" fill="#39FF14" opacity="0.8"/>
  <circle cx="1176" cy="606" r="4" fill="#39FF14" opacity="0.8"/>

  <!-- Store name (large) -->
  <text x="600" y="270" text-anchor="middle"
        font-family="'Space Grotesk','Inter',system-ui,sans-serif"
        font-size="72" font-weight="700" fill="#eaeaff"
        filter="url(#neonGlow)">
    Game Vault
  </text>

  <!-- Neon underline -->
  <line x1="300" y1="295" x2="900" y2="295"
        stroke="#39FF14" stroke-width="3" opacity="0.7"
        stroke-linecap="round"/>

  <!-- Tagline -->
  <text x="600" y="345" text-anchor="middle"
        font-family="'Inter',system-ui,sans-serif"
        font-size="24" fill="#8888aa">
    Level up IRL
  </text>

  <!-- Brand subtitle -->
  <text x="600" y="420" text-anchor="middle"
        font-family="'Space Grotesk','Inter',system-ui,sans-serif"
        font-size="20" font-weight="600" fill="#39FF14" opacity="0.9">
    Neon Bazaar
  </text>

  <!-- Decorative scanlines -->
  <g opacity="0.03">
    <line x1="0" y1="0" x2="1200" y2="0" stroke="#eaeaff" stroke-width="1"/><line x1="0" y1="3" x2="1200" y2="3" stroke="#eaeaff" stroke-width="1"/><line x1="0" y1="6" x2="1200" y2="6" stroke="#eaeaff" stroke-width="1"/><line x1="0" y1="9" x2="1200" y2="9" stroke="#eaeaff" stroke-width="1"/><line x1="0" y1="12" x2="1200" y2="12" stroke="#eaeaff" stroke-width="1"/><line x1="0" y1="15" x2="1200" y2="15" stroke="#eaeaff" stroke-width="1"/><line x1="0" y1="18" x2="1200" y2="18" stroke="#eaeaff" stroke-width="1"/><line x1="0" y1="21" x2="1200" y2="21" stroke="#eaeaff" stroke-width="1"/><line x1="0" y1="24" x2="1200" y2="24" stroke="#eaeaff" stroke-width="1"/><line x1="0" y1="27" x2="1200" y2="27" stroke="#eaeaff" stroke-width="1"/><line x1="0" y1="30" x2="1200" y2="30" stroke="#eaeaff" stroke-width="1"/><line x1="0" y1="33" x2="1200" y2="33" stroke="#eaeaff" stroke-width="1"/><line x1="0" y1="36" x2="1200" y2="36" stroke="#eaeaff" stroke-width="1"/><line x1="0" y1="39" x2="1200" y2="39" stroke="#eaeaff" stroke-width="1"/><line x1="0" y1="42" x2="1200" y2="42" stroke="#eaeaff" stroke-width="1"/><line x1="0" y1="45" x2="1200" y2="45" stroke="#eaeaff" stroke-width="1"/><line x1="0" y1="48" x2="1200" y2="48" stroke="#eaeaff" stroke-width="1"/><line x1="0" y1="51" x2="1200" y2="51" stroke="#eaeaff" stroke-width="1"/><line x1="0" y1="54" x2="1200" y2="54" stroke="#eaeaff" stroke-width="1"/><line x1="0" y1="57" x2="1200" y2="57" stroke="#eaeaff" stroke-width="1"/><line x1="0" y1="60" x2="1200" y2="60" stroke="#eaeaff" stroke-width="1"/><line x1="0" y1="63" x2="1200" y2="63" stroke="#eaeaff" stroke-width="1"/><line x1="0" y1="66" x2="1200" y2="66" stroke="#eaeaff" stroke-width="1"/><line x1="0" y1="69" x2="1200" y2="69" stroke="#eaeaff" stroke-width="1"/><line x1="0" y1="72" x2="1200" y2="72" stroke="#eaeaff" stroke-width="1"/><line x1="0" y1="75" x2="1200" y2="75" stroke="#eaeaff" stroke-width="1"/><line x1="0" y1="78" x2="1200" y2="78" stroke="#eaeaff" stroke-width="1"/><line x1="0" y1="81" x2="1200" y2="81" stroke="#eaeaff" stroke-width="1"/><line x1="0" y1="84" x2="1200" y2="84" stroke="#eaeaff" stroke-width="1"/><line x1="0" y1="87" x2="1200" y2="87" stroke="#eaeaff" stroke-width="1"/><line x1="0" y1="90" x2="1200" y2="90" stroke="#eaeaff" stroke-width="1"/><line x1="0" y1="93" x2="1200" y2="93" stroke="#eaeaff" stroke-width="1"/><line x1="0" y1="96" x2="1200" y2="96" stroke="#eaeaff" stroke-width="1"/><line x1="0" y1="99" x2="1200" y2="99" stroke="#eaeaff" stroke-width="1"/><line x1="0" y1="102" x2="1200" y2="102" stroke="#eaeaff" stroke-width="1"/><line x1="0" y1="105" x2="1200" y2="105" stroke="#eaeaff" stroke-width="1"/><line x1="0" y1="108" x2="1200" y2="108" stroke="#eaeaff" stroke-width="1"/><line x1="0" y1="111" x2="1200" y2="111" stroke="#eaeaff" stroke-width="1"/><line x1="0" y1="114" x2="1200" y2="114" stroke="#eaeaff" stroke-width="1"/><line x1="0" y1="117" x2="1200" y2="117" stroke="#eaeaff" stroke-width="1"/><line x1="0" y1="120" x2="1200" y2="120" stroke="#eaeaff" stroke-width="1"/><line x1="0" y1="123" x2="1200" y2="123" stroke="#eaeaff" stroke-width="1"/><line x1="0" y1="126" x2="1200" y2="126" stroke="#eaeaff" stroke-width="1"/><line x1="0" y1="129" x2="1200" y2="129" stroke="#eaeaff" stroke-width="1"/><line x1="0" y1="132" x2="1200" y2="132" stroke="#eaeaff" stroke-width="1"/><line x1="0" y1="135" x2="1200" y2="135" stroke="#eaeaff" stroke-width="1"/><line x1="0" y1="138" x2="1200" y2="138" stroke="#eaeaff" stroke-width="1"/><line x1="0" y1="141" x2="1200" y2="141" stroke="#eaeaff" stroke-width="1"/><line x1="0" y1="144" x2="1200" y2="144" stroke="#eaeaff" stroke-width="1"/><line x1="0" y1="147" x2="1200" y2="147" stroke="#eaeaff" stroke-width="1"/><line x1="0" y1="150" x2="1200" y2="150" stroke="#eaeaff" stroke-width="1"/><line x1="0" y1="153" x2="1200" y2="153" stroke="#eaeaff" stroke-width="1"/><line x1="0" y1="156" x2="1200" y2="156" stroke="#eaeaff" stroke-width="1"/><line x1="0" y1="159" x2="1200" y2="159" stroke="#eaeaff" stroke-width="1"/><line x1="0" y1="162" x2="1200" y2="162" stroke="#eaeaff" stroke-width="1"/><line x1="0" y1="165" x2="1200" y2="165" stroke="#eaeaff" stroke-width="1"/><line x1="0" y1="168" x2="1200" y2="168" stroke="#eaeaff" stroke-width="1"/><line x1="0" y1="171" x2="1200" y2="171" stroke="#eaeaff" stroke-width="1"/><line x1="0" y1="174" x2="1200" y2="174" stroke="#eaeaff" stroke-width="1"/><line x1="0" y1="177" x2="1200" y2="177" stroke="#eaeaff" stroke-width="1"/><line x1="0" y1="180" x2="1200" y2="180" stroke="#eaeaff" stroke-width="1"/><line x1="0" y1="183" x2="1200" y2="183" stroke="#eaeaff" stroke-width="1"/><line x1="0" y1="186" x2="1200" y2="186" stroke="#eaeaff" stroke-width="1"/><line x1="0" y1="189" x2="1200" y2="189" stroke="#eaeaff" stroke-width="1"/><line x1="0" y1="192" x2="1200" y2="192" stroke="#eaeaff" stroke-width="1"/><line x1="0" y1="195" x2="1200" y2="195" stroke="#eaeaff" stroke-width="1"/><line x1="0" y1="198" x2="1200" y2="198" stroke="#eaeaff" stroke-width="1"/><line x1="0" y1="201" x2="1200" y2="201" stroke="#eaeaff" stroke-width="1"/><line x1="0" y1="204" x2="1200" y2="204" stroke="#eaeaff" stroke-width="1"/><line x1="0" y1="207" x2="1200" y2="207" stroke="#eaeaff" stroke-width="1"/><line x1="0" y1="210" x2="1200" y2="210" stroke="#eaeaff" stroke-width="1"/><line x1="0" y1="213" x2="1200" y2="213" stroke="#eaeaff" stroke-width="1"/><line x1="0" y1="216" x2="1200" y2="216" stroke="#eaeaff" stroke-width="1"/><line x1="0" y1="219" x2="1200" y2="219" stroke="#eaeaff" stroke-width="1"/><line x1="0" y1="222" x2="1200" y2="222" stroke="#eaeaff" stroke-width="1"/><line x1="0" y1="225" x2="1200" y2="225" stroke="#eaeaff" stroke-width="1"/><line x1="0" y1="228" x2="1200" y2="228" stroke="#eaeaff" stroke-width="1"/><line x1="0" y1="231" x2="1200" y2="231" stroke="#eaeaff" stroke-width="1"/><line x1="0" y1="234" x2="1200" y2="234" stroke="#eaeaff" stroke-width="1"/><line x1="0" y1="237" x2="1200" y2="237" stroke="#eaeaff" stroke-width="1"/><line x1="0" y1="240" x2="1200" y2="240" stroke="#eaeaff" stroke-width="1"/><line x1="0" y1="243" x2="1200" y2="243" stroke="#eaeaff" stroke-width="1"/><line x1="0" y1="246" x2="1200" y2="246" stroke="#eaeaff" stroke-width="1"/><line x1="0" y1="249" x2="1200" y2="249" stroke="#eaeaff" stroke-width="1"/><line x1="0" y1="252" x2="1200" y2="252" stroke="#eaeaff" stroke-width="1"/><line x1="0" y1="255" x2="1200" y2="255" stroke="#eaeaff" stroke-width="1"/><line x1="0" y1="258" x2="1200" y2="258" stroke="#eaeaff" stroke-width="1"/><line x1="0" y1="261" x2="1200" y2="261" stroke="#eaeaff" stroke-width="1"/><line x1="0" y1="264" x2="1200" y2="264" stroke="#eaeaff" stroke-width="1"/><line x1="0" y1="267" x2="1200" y2="267" stroke="#eaeaff" stroke-width="1"/><line x1="0" y1="270" x2="1200" y2="270" stroke="#eaeaff" stroke-width="1"/><line x1="0" y1="273" x2="1200" y2="273" stroke="#eaeaff" stroke-width="1"/><line x1="0" y1="276" x2="1200" y2="276" stroke="#eaeaff" stroke-width="1"/><line x1="0" y1="279" x2="1200" y2="279" stroke="#eaeaff" stroke-width="1"/><line x1="0" y1="282" x2="1200" y2="282" stroke="#eaeaff" stroke-width="1"/><line x1="0" y1="285" x2="1200" y2="285" stroke="#eaeaff" stroke-width="1"/><line x1="0" y1="288" x2="1200" y2="288" stroke="#eaeaff" stroke-width="1"/><line x1="0" y1="291" x2="1200" y2="291" stroke="#eaeaff" stroke-width="1"/><line x1="0" y1="294" x2="1200" y2="294" stroke="#eaeaff" stroke-width="1"/><line x1="0" y1="297" x2="1200" y2="297" stroke="#eaeaff" stroke-width="1"/><line x1="0" y1="300" x2="1200" y2="300" stroke="#eaeaff" stroke-width="1"/><line x1="0" y1="303" x2="1200" y2="303" stroke="#eaeaff" stroke-width="1"/><line x1="0" y1="306" x2="1200" y2="306" stroke="#eaeaff" stroke-width="1"/><line x1="0" y1="309" x2="1200" y2="309" stroke="#eaeaff" stroke-width="1"/><line x1="0" y1="312" x2="1200" y2="312" stroke="#eaeaff" stroke-width="1"/><line x1="0" y1="315" x2="1200" y2="315" stroke="#eaeaff" stroke-width="1"/><line x1="0" y1="318" x2="1200" y2="318" stroke="#eaeaff" stroke-width="1"/><line x1="0" y1="321" x2="1200" y2="321" stroke="#eaeaff" stroke-width="1"/><line x1="0" y1="324" x2="1200" y2="324" stroke="#eaeaff" stroke-width="1"/><line x1="0" y1="327" x2="1200" y2="327" stroke="#eaeaff" stroke-width="1"/><line x1="0" y1="330" x2="1200" y2="330" stroke="#eaeaff" stroke-width="1"/><line x1="0" y1="333" x2="1200" y2="333" stroke="#eaeaff" stroke-width="1"/><line x1="0" y1="336" x2="1200" y2="336" stroke="#eaeaff" stroke-width="1"/><line x1="0" y1="339" x2="1200" y2="339" stroke="#eaeaff" stroke-width="1"/><line x1="0" y1="342" x2="1200" y2="342" stroke="#eaeaff" stroke-width="1"/><line x1="0" y1="345" x2="1200" y2="345" stroke="#eaeaff" stroke-width="1"/><line x1="0" y1="348" x2="1200" y2="348" stroke="#eaeaff" stroke-width="1"/><line x1="0" y1="351" x2="1200" y2="351" stroke="#eaeaff" stroke-width="1"/><line x1="0" y1="354" x2="1200" y2="354" stroke="#eaeaff" stroke-width="1"/><line x1="0" y1="357" x2="1200" y2="357" stroke="#eaeaff" stroke-width="1"/><line x1="0" y1="360" x2="1200" y2="360" stroke="#eaeaff" stroke-width="1"/><line x1="0" y1="363" x2="1200" y2="363" stroke="#eaeaff" stroke-width="1"/><line x1="0" y1="366" x2="1200" y2="366" stroke="#eaeaff" stroke-width="1"/><line x1="0" y1="369" x2="1200" y2="369" stroke="#eaeaff" stroke-width="1"/><line x1="0" y1="372" x2="1200" y2="372" stroke="#eaeaff" stroke-width="1"/><line x1="0" y1="375" x2="1200" y2="375" stroke="#eaeaff" stroke-width="1"/><line x1="0" y1="378" x2="1200" y2="378" stroke="#eaeaff" stroke-width="1"/><line x1="0" y1="381" x2="1200" y2="381" stroke="#eaeaff" stroke-width="1"/><line x1="0" y1="384" x2="1200" y2="384" stroke="#eaeaff" stroke-width="1"/><line x1="0" y1="387" x2="1200" y2="387" stroke="#eaeaff" stroke-width="1"/><line x1="0" y1="390" x2="1200" y2="390" stroke="#eaeaff" stroke-width="1"/><line x1="0" y1="393" x2="1200" y2="393" stroke="#eaeaff" stroke-width="1"/><line x1="0" y1="396" x2="1200" y2="396" stroke="#eaeaff" stroke-width="1"/><line x1="0" y1="399" x2="1200" y2="399" stroke="#eaeaff" stroke-width="1"/><line x1="0" y1="402" x2="1200" y2="402" stroke="#eaeaff" stroke-width="1"/><line x1="0" y1="405" x2="1200" y2="405" stroke="#eaeaff" stroke-width="1"/><line x1="0" y1="408" x2="1200" y2="408" stroke="#eaeaff" stroke-width="1"/><line x1="0" y1="411" x2="1200" y2="411" stroke="#eaeaff" stroke-width="1"/><line x1="0" y1="414" x2="1200" y2="414" stroke="#eaeaff" stroke-width="1"/><line x1="0" y1="417" x2="1200" y2="417" stroke="#eaeaff" stroke-width="1"/><line x1="0" y1="420" x2="1200" y2="420" stroke="#eaeaff" stroke-width="1"/><line x1="0" y1="423" x2="1200" y2="423" stroke="#eaeaff" stroke-width="1"/><line x1="0" y1="426" x2="1200" y2="426" stroke="#eaeaff" stroke-width="1"/><line x1="0" y1="429" x2="1200" y2="429" stroke="#eaeaff" stroke-width="1"/><line x1="0" y1="432" x2="1200" y2="432" stroke="#eaeaff" stroke-width="1"/><line x1="0" y1="435" x2="1200" y2="435" stroke="#eaeaff" stroke-width="1"/><line x1="0" y1="438" x2="1200" y2="438" stroke="#eaeaff" stroke-width="1"/><line x1="0" y1="441" x2="1200" y2="441" stroke="#eaeaff" stroke-width="1"/><line x1="0" y1="444" x2="1200" y2="444" stroke="#eaeaff" stroke-width="1"/><line x1="0" y1="447" x2="1200" y2="447" stroke="#eaeaff" stroke-width="1"/><line x1="0" y1="450" x2="1200" y2="450" stroke="#eaeaff" stroke-width="1"/><line x1="0" y1="453" x2="1200" y2="453" stroke="#eaeaff" stroke-width="1"/><line x1="0" y1="456" x2="1200" y2="456" stroke="#eaeaff" stroke-width="1"/><line x1="0" y1="459" x2="1200" y2="459" stroke="#eaeaff" stroke-width="1"/><line x1="0" y1="462" x2="1200" y2="462" stroke="#eaeaff" stroke-width="1"/><line x1="0" y1="465" x2="1200" y2="465" stroke="#eaeaff" stroke-width="1"/><line x1="0" y1="468" x2="1200" y2="468" stroke="#eaeaff" stroke-width="1"/><line x1="0" y1="471" x2="1200" y2="471" stroke="#eaeaff" stroke-width="1"/><line x1="0" y1="474" x2="1200" y2="474" stroke="#eaeaff" stroke-width="1"/><line x1="0" y1="477" x2="1200" y2="477" stroke="#eaeaff" stroke-width="1"/><line x1="0" y1="480" x2="1200" y2="480" stroke="#eaeaff" stroke-width="1"/><line x1="0" y1="483" x2="1200" y2="483" stroke="#eaeaff" stroke-width="1"/><line x1="0" y1="486" x2="1200" y2="486" stroke="#eaeaff" stroke-width="1"/><line x1="0" y1="489" x2="1200" y2="489" stroke="#eaeaff" stroke-width="1"/><line x1="0" y1="492" x2="1200" y2="492" stroke="#eaeaff" stroke-width="1"/><line x1="0" y1="495" x2="1200" y2="495" stroke="#eaeaff" stroke-width="1"/><line x1="0" y1="498" x2="1200" y2="498" stroke="#eaeaff" stroke-width="1"/><line x1="0" y1="501" x2="1200" y2="501" stroke="#eaeaff" stroke-width="1"/><line x1="0" y1="504" x2="1200" y2="504" stroke="#eaeaff" stroke-width="1"/><line x1="0" y1="507" x2="1200" y2="507" stroke="#eaeaff" stroke-width="1"/><line x1="0" y1="510" x2="1200" y2="510" stroke="#eaeaff" stroke-width="1"/><line x1="0" y1="513" x2="1200" y2="513" stroke="#eaeaff" stroke-width="1"/><line x1="0" y1="516" x2="1200" y2="516" stroke="#eaeaff" stroke-width="1"/><line x1="0" y1="519" x2="1200" y2="519" stroke="#eaeaff" stroke-width="1"/><line x1="0" y1="522" x2="1200" y2="522" stroke="#eaeaff" stroke-width="1"/><line x1="0" y1="525" x2="1200" y2="525" stroke="#eaeaff" stroke-width="1"/><line x1="0" y1="528" x2="1200" y2="528" stroke="#eaeaff" stroke-width="1"/><line x1="0" y1="531" x2="1200" y2="531" stroke="#eaeaff" stroke-width="1"/><line x1="0" y1="534" x2="1200" y2="534" stroke="#eaeaff" stroke-width="1"/><line x1="0" y1="537" x2="1200" y2="537" stroke="#eaeaff" stroke-width="1"/><line x1="0" y1="540" x2="1200" y2="540" stroke="#eaeaff" stroke-width="1"/><line x1="0" y1="543" x2="1200" y2="543" stroke="#eaeaff" stroke-width="1"/><line x1="0" y1="546" x2="1200" y2="546" stroke="#eaeaff" stroke-width="1"/><line x1="0" y1="549" x2="1200" y2="549" stroke="#eaeaff" stroke-width="1"/><line x1="0" y1="552" x2="1200" y2="552" stroke="#eaeaff" stroke-width="1"/><line x1="0" y1="555" x2="1200" y2="555" stroke="#eaeaff" stroke-width="1"/><line x1="0" y1="558" x2="1200" y2="558" stroke="#eaeaff" stroke-width="1"/><line x1="0" y1="561" x2="1200" y2="561" stroke="#eaeaff" stroke-width="1"/><line x1="0" y1="564" x2="1200" y2="564" stroke="#eaeaff" stroke-width="1"/><line x1="0" y1="567" x2="1200" y2="567" stroke="#eaeaff" stroke-width="1"/><line x1="0" y1="570" x2="1200" y2="570" stroke="#eaeaff" stroke-width="1"/><line x1="0" y1="573" x2="1200" y2="573" stroke="#eaeaff" stroke-width="1"/><line x1="0" y1="576" x2="1200" y2="576" stroke="#eaeaff" stroke-width="1"/><line x1="0" y1="579" x2="1200" y2="579" stroke="#eaeaff" stroke-width="1"/><line x1="0" y1="582" x2="1200" y2="582" stroke="#eaeaff" stroke-width="1"/><line x1="0" y1="585" x2="1200" y2="585" stroke="#eaeaff" stroke-width="1"/><line x1="0" y1="588" x2="1200" y2="588" stroke="#eaeaff" stroke-width="1"/><line x1="0" y1="591" x2="1200" y2="591" stroke="#eaeaff" stroke-width="1"/><line x1="0" y1="594" x2="1200" y2="594" stroke="#eaeaff" stroke-width="1"/><line x1="0" y1="597" x2="1200" y2="597" stroke="#eaeaff" stroke-width="1"/><line x1="0" y1="600" x2="1200" y2="600" stroke="#eaeaff" stroke-width="1"/><line x1="0" y1="603" x2="1200" y2="603" stroke="#eaeaff" stroke-width="1"/><line x1="0" y1="606" x2="1200" y2="606" stroke="#eaeaff" stroke-width="1"/><line x1="0" y1="609" x2="1200" y2="609" stroke="#eaeaff" stroke-width="1"/><line x1="0" y1="612" x2="1200" y2="612" stroke="#eaeaff" stroke-width="1"/><line x1="0" y1="615" x2="1200" y2="615" stroke="#eaeaff" stroke-width="1"/><line x1="0" y1="618" x2="1200" y2="618" stroke="#eaeaff" stroke-width="1"/><line x1="0" y1="621" x2="1200" y2="621" stroke="#eaeaff" stroke-width="1"/><line x1="0" y1="624" x2="1200" y2="624" stroke="#eaeaff" stroke-width="1"/><line x1="0" y1="627" x2="1200" y2="627" stroke="#eaeaff" stroke-width="1"/>
  </g>

  <!-- Bottom bar -->
  <rect x="24" y="560" width="1152" height="46" rx="0" ry="0"
        fill="#39FF14" opacity="0.08"/>
  <text x="600" y="590" text-anchor="middle"
        font-family="'JetBrains Mono',monospace"
        font-size="14" fill="#8888aa" opacity="0.7">
    neon-bazaar.dev // digital goods // instant download
  </text>
</svg>